<?xml version="1.0" encoding="UTF-8"?>
<svg id="Ebene_2" data-name="Ebene 2" xmlns="http://www.w3.org/2000/svg" viewBox="0 0 299.25 44.46">
  <g id="Ebene_1-2" data-name="Ebene 1">
    <g>
      <path d="M0,0h9.63v11.91c.95-1,2.04-1.75,3.25-2.25s2.55-.75,4.02-.75c3.03,0,5.54,1.09,7.52,3.27s2.98,5.31,2.98,9.39c0,2.72-.45,5.11-1.36,7.18s-2.16,3.62-3.76,4.64-3.38,1.54-5.33,1.54c-1.67,0-3.2-.36-4.59-1.08-1.05-.56-2.19-1.62-3.42-3.16v3.68H0V0ZM9.56,21.84c0,2.14.4,3.69,1.21,4.65s1.82,1.44,3.06,1.44c1.14,0,2.1-.47,2.87-1.42s1.16-2.54,1.16-4.77c0-1.97-.38-3.41-1.14-4.34s-1.68-1.38-2.75-1.38c-1.3,0-2.36.48-3.18,1.44s-1.23,2.42-1.23,4.37Z"/>
      <path d="M30.8,21.98c0-3.8,1.28-6.93,3.84-9.39s6.02-3.69,10.38-3.69c4.98,0,8.75,1.45,11.3,4.34,2.05,2.33,3.07,5.2,3.07,8.6,0,3.83-1.27,6.96-3.81,9.41s-6.05,3.67-10.54,3.67c-4,0-7.23-1.02-9.7-3.05-3.03-2.52-4.55-5.81-4.55-9.89ZM40.36,21.96c0,2.22.45,3.86,1.35,4.92s2.03,1.59,3.39,1.59,2.5-.52,3.39-1.57,1.32-2.73,1.32-5.04c0-2.16-.45-3.76-1.34-4.82s-1.99-1.58-3.3-1.58c-1.39,0-2.54.54-3.45,1.61s-1.36,2.7-1.36,4.89Z"/>
      <path d="M64.08,9.47h8.93v4.08c.86-1.77,1.75-2.98,2.66-3.64s2.04-1,3.39-1,2.95.44,4.62,1.31l-2.95,6.8c-1.12-.47-2.02-.7-2.67-.7-1.25,0-2.22.52-2.91,1.55-.98,1.45-1.48,4.17-1.48,8.16v8.34h-9.59V9.47Z"/>
      <path d="M85.64,0h9.54v6.49h-9.54V0ZM85.64,9.47h9.54v24.89h-9.54V9.47Z"/>
      <path d="M101.27,9.47h8.88v4.05c1.33-1.66,2.67-2.84,4.03-3.55s3.02-1.07,4.97-1.07c2.64,0,4.71.79,6.2,2.36s2.24,4,2.24,7.28v15.82h-9.59v-13.69c0-1.56-.29-2.67-.87-3.32s-1.39-.97-2.44-.97c-1.16,0-2.09.44-2.81,1.31s-1.08,2.45-1.08,4.71v11.95h-9.54V9.47Z"/>
      <path d="M150.61,9.47h8.93v23.51l.02,1.1c0,1.56-.33,3.05-1,4.46s-1.55,2.56-2.65,3.43-2.5,1.51-4.2,1.9-3.64.59-5.82.59c-5,0-8.43-.75-10.3-2.25s-2.8-3.51-2.8-6.02c0-.31.02-.73.05-1.27l9.26,1.05c.23.86.59,1.45,1.08,1.78.7.48,1.59.73,2.65.73,1.38,0,2.4-.37,3.08-1.1s1.02-2.02,1.02-3.84v-3.77c-.94,1.11-1.88,1.91-2.81,2.41-1.47.78-3.05,1.17-4.76,1.17-3.33,0-6.02-1.45-8.06-4.36-1.45-2.06-2.18-4.79-2.18-8.18,0-3.88.94-6.83,2.81-8.86s4.33-3.05,7.36-3.05c1.94,0,3.54.33,4.79.98s2.43,1.74,3.53,3.26v-3.68ZM141.63,21.54c0,1.8.38,3.13,1.15,4s1.77,1.3,3.02,1.3,2.18-.45,2.99-1.35,1.21-2.25,1.21-4.07-.42-3.2-1.27-4.16-1.88-1.44-3.09-1.44-2.19.44-2.92,1.32-1.09,2.35-1.09,4.39Z"/>
      <path d="M183.52,34.36l-7.62-24.89h4.36l3.96,14.37,1.48,5.34c.06-.27.49-1.98,1.29-5.13l3.96-14.58h4.34l3.73,14.44,1.24,4.76,1.43-4.8,4.27-14.39h4.1l-7.78,24.89h-4.38l-3.96-14.91-.96-4.24-5.04,19.15h-4.41Z"/>
      <path d="M212.02,21.91c0-4.61,1.28-8.02,3.84-10.24,2.14-1.84,4.75-2.77,7.83-2.77,3.42,0,6.22,1.12,8.39,3.36s3.26,5.34,3.26,9.29c0,3.2-.48,5.72-1.44,7.56s-2.36,3.26-4.2,4.28-3.84,1.52-6.01,1.52c-3.48,0-6.3-1.12-8.45-3.35s-3.22-5.45-3.22-9.66ZM216.35,21.91c0,3.19.7,5.57,2.09,7.16s3.14,2.38,5.25,2.38,3.84-.8,5.23-2.39,2.09-4.02,2.09-7.29c0-3.08-.7-5.41-2.1-7s-3.14-2.38-5.21-2.38-3.86.79-5.25,2.37-2.09,3.96-2.09,7.15Z"/>
      <path d="M240.23,34.36V9.47h3.8v3.77c.97-1.77,1.86-2.93,2.68-3.49s1.72-.84,2.71-.84c1.42,0,2.87.45,4.34,1.36l-1.45,3.91c-1.03-.61-2.06-.91-3.09-.91-.92,0-1.75.28-2.48.83s-1.26,1.32-1.57,2.31c-.47,1.5-.7,3.14-.7,4.92v13.03h-4.22Z"/>
      <path d="M256.29,34.36V0h4.22v19.59l9.98-10.12h5.46l-9.52,9.23,10.48,15.66h-5.2l-8.23-12.73-2.98,2.86v9.87h-4.22Z"/>
      <path d="M278.58,26.93l4.17-.66c.23,1.67.89,2.95,1.96,3.84s2.57,1.34,4.49,1.34,3.38-.39,4.31-1.18,1.41-1.71,1.41-2.78c0-.95-.41-1.7-1.24-2.25-.58-.38-2.02-.85-4.31-1.43-3.09-.78-5.24-1.46-6.43-2.03s-2.1-1.36-2.72-2.37-.93-2.12-.93-3.34c0-1.11.25-2.14.76-3.08s1.2-1.73,2.07-2.36c.66-.48,1.55-.89,2.68-1.23s2.35-.5,3.64-.5c1.95,0,3.67.28,5.14.84s2.57,1.32,3.27,2.29,1.19,2.25,1.45,3.86l-4.12.56c-.19-1.28-.73-2.28-1.63-3s-2.17-1.08-3.81-1.08c-1.94,0-3.32.32-4.15.96s-1.24,1.39-1.24,2.25c0,.55.17,1.04.52,1.48.34.45.88.83,1.62,1.12.42.16,1.66.52,3.73,1.08,2.98.8,5.07,1.45,6.25,1.96s2.11,1.25,2.78,2.21,1.01,2.17,1.01,3.61-.41,2.73-1.23,3.97-2,2.2-3.55,2.88-3.3,1.02-5.25,1.02c-3.23,0-5.7-.67-7.39-2.02s-2.78-3.34-3.25-5.98Z"/>
    </g>
  </g>
</svg>