<?xml version="1.0" encoding="UTF-8"?>
<svg id="Ebene_2" data-name="Ebene 2" xmlns="http://www.w3.org/2000/svg" viewBox="0 0 198.43 198.43">
  <g id="Ebene_1-2" data-name="Ebene 1">
    <g>
      <polygon points="31.27 198.43 43.09 198.43 171.16 0 159.33 0 31.27 198.43"/>
      <path d="M184.76,115.5l-14.21,47.94-4.76,16.01-4.14-15.85-12.41-48.1h-14.44l-13.2,48.57c-2.65,10.52-4.09,16.21-4.29,17.1l-4.92-17.8-12.19-44.2-9.78,15.15,19.62,64.11h14.68l16.79-63.79,3.2,14.13,13.2,49.66h14.6l25.92-82.92h-13.66Z"/>
      <path d="M32.99,113.34c4.56,5.71,8.77,9.61,12.64,11.69,5.14,2.65,10.79,3.98,16.97,3.98,2.8,0,5.49-.3,8.09-.88l30.5-47.27c0-.4.02-.8.02-1.21,0-15.07-3.67-26.62-11-34.68-7.33-8.05-16.6-12.08-27.79-12.08-5.43,0-10.38.92-14.85,2.77-4.47,1.85-8.47,4.62-11.99,8.31V0H0v126.93h32.99v-13.59ZM39.87,64.55c3.03-3.55,6.94-5.33,11.73-5.33,3.98,0,7.37,1.7,10.17,5.11,2.8,3.41,4.2,8.75,4.2,16.02,0,8.26-1.43,14.13-4.29,17.62-2.86,3.49-6.39,5.24-10.61,5.24-4.56,0-8.33-1.77-11.3-5.33-2.97-3.55-4.46-9.28-4.46-17.19,0-7.22,1.51-12.6,4.55-16.15Z"/>
    </g>
  </g>
</svg>